<?xml version="1.0" encoding="utf-8"?>
<!-- Generator: Adobe Illustrator 23.0.1, SVG Export Plug-In . SVG Version: 6.00 Build 0)  -->
<svg version="1.1" id="Layer_1" xmlns="http://www.w3.org/2000/svg" xmlns:xlink="http://www.w3.org/1999/xlink" x="0px" y="0px"
	 viewBox="0 0 841.89 595.28" style="enable-background:new 0 0 841.89 595.28;" xml:space="preserve">
<style type="text/css">
	.st0{fill:#E9E5DD;}
	.st1{fill:#101830;}
	.st2{fill:#82C5A7;}
	.st3{fill:#6FAB9B;}
	.st4{fill:#2574BB;}
	.st5{fill:#F2F2F2;}
	.st6{fill:#1F3261;}
	.st7{fill:#5E2A73;}
	.st8{fill:#393F98;}
	.st9{fill:#FDCDA1;}
	.st10{fill-rule:evenodd;clip-rule:evenodd;fill:#FDCDA1;}
	.st11{fill-rule:evenodd;clip-rule:evenodd;fill:#2574BB;}
	.st12{fill:#FAAF43;}
	.st13{fill-rule:evenodd;clip-rule:evenodd;fill:#C9E9EE;}
	.st14{fill-rule:evenodd;clip-rule:evenodd;fill:#FDDA45;}
	.st15{fill:#414142;}
	.st16{fill:#231F20;}
</style>
<g>
	<path class="st0" d="M286.8,379.13c5.92-0.59,12.12-1.32,17.02-4.69c4.9-3.38,7.91-10.3,4.97-15.48c-2.45-4.33-8.3-6.43-9.52-11.26
		c-1.01-3.98,1.85-8.12,5.51-9.97c3.66-1.85,7.93-1.96,12.04-2.03c25.99-0.45,51.97-0.9,77.96-1.35c4.85-0.08,9.84-0.15,14.37,1.57
		c4.54,1.72,8.58,5.65,8.93,10.49c0.4,5.44-3.71,10.02-7.25,14.17c-3.55,4.14-6.98,9.61-5.07,14.72c2.27,6.04,10.15,7.23,16.6,7.45
		c46.91,1.61,134.05,0.92,140.74,4.83c7.16,4.19,6.26,15.95-11.03,17.58c-7.04,0.66-15.75,0.52-22.82,0.57
		c-91.39,0.62-182.78,1.25-274.17,1.87c-5.8,0.04-12.55-0.39-15.86-5.15c-4.1-5.9,0.13-7.82,6.82-10.45s18.24-1.42,25.39-2.15
		C276.45,389.32,280.88,379.71,286.8,379.13z"/>
</g>
<g>
	<g>
		<g>
			<path class="st1" d="M366.75,344.08c0,0-0.39-54.06-27.62-94.71l-3.99,2.18c0,0,19.99,32.98,18.15,92.53H366.75z"/>
			<g>
				<path class="st2" d="M339.66,252.06c-7.5-7.84-32.42-28.98-62.55-2.09c-0.54,0.48-0.1,1.46,0.56,1.23l9.98-3.45
					c0.56-0.19,1.01,0.52,0.69,1.07l-0.01,0.02c-0.32,0.55,0.13,1.26,0.68,1.07l10.25-3.41c0.61-0.2,1.06,0.66,0.61,1.18l-2.06,2.32
					c-0.45,0.51-0.01,1.37,0.6,1.18l13.19-4.21c0.61-0.19,1.05,0.66,0.6,1.18l-1.35,1.55c-0.43,0.5-0.04,1.33,0.57,1.19l9.91-2.44
					c0.66-0.16,1.04,0.83,0.48,1.27v0c-0.52,0.41-0.23,1.33,0.39,1.28c3.53-0.28,10.48-0.36,16.84,2.24
					C339.66,253.5,340.15,252.58,339.66,252.06z"/>
				<path class="st2" d="M339.21,252.06c-9.09-0.67-36.23,0.55-36.42,38.96c0,0.69,0.85,1.09,1.08,0.51l3.46-8.88
					c0.19-0.49,0.89-0.29,1.05,0.31l0.01,0.03c0.16,0.59,0.85,0.8,1.05,0.31l3.63-9.03c0.22-0.54,1.01-0.22,1.07,0.44l0.29,2.96
					c0.06,0.65,0.85,0.98,1.07,0.44l4.79-11.49c0.22-0.53,1-0.21,1.07,0.44l0.2,1.96c0.06,0.63,0.81,0.96,1.05,0.47l4.05-8.12
					c0.27-0.54,1.1-0.09,1.06,0.58l0,0c-0.04,0.62,0.7,1.09,1.02,0.65c1.81-2.48,5.66-7.03,10.85-9.3
					C340.11,253.07,339.81,252.11,339.21,252.06z"/>
				<path class="st2" d="M337.42,252.69c2.77-11.17,14.22-44.12,52.24-39.34c0.68,0.09,0.75,1.18,0.09,1.38l-10.08,3.06
					c-0.56,0.17-0.62,1.05-0.09,1.32l0.02,0.01c0.53,0.27,0.47,1.14-0.09,1.32l-10.29,3.25c-0.62,0.19-0.6,1.2,0.03,1.36l2.82,0.74
					c0.62,0.16,0.64,1.16,0.03,1.36l-13.16,4.35c-0.61,0.2-0.59,1.19,0.03,1.36l1.86,0.5c0.6,0.16,0.64,1.11,0.07,1.35l-9.55,3.88
					c-0.64,0.26-0.5,1.33,0.17,1.37l0,0c0.63,0.04,0.81,0.99,0.26,1.32c-3.13,1.89-9.08,5.98-13.29,12.02
					C338.08,253.91,337.24,253.43,337.42,252.69z"/>
				<path class="st2" d="M338.02,253.2c-5.84-9.92-20.73-41.46,9.77-64.66c0.54-0.41,1.36,0.32,1.03,0.92l-5.05,9.24
					c-0.28,0.51,0.29,1.19,0.86,1.01l0.03-0.01c0.57-0.18,1.14,0.49,0.86,1l-5.07,9.53c-0.3,0.57,0.41,1.27,0.97,0.96l2.53-1.44
					c0.56-0.32,1.27,0.38,0.98,0.95l-6.36,12.32c-0.29,0.57,0.42,1.26,0.97,0.95l1.68-0.95c0.54-0.3,1.24,0.34,0.99,0.92l-4.11,9.46
					c-0.27,0.63,0.57,1.3,1.08,0.85l0,0c0.47-0.41,1.27,0.14,1.11,0.77c-0.91,3.54-2.29,10.63-1.07,17.89
					C339.35,253.62,338.41,253.86,338.02,253.2z"/>
				<path class="st2" d="M337.8,252.42c7.42-6.03,31.06-21.29,48.93,11.26c0.32,0.58-0.22,1.44-0.68,1.08l-7.03-5.47
					c-0.39-0.3-0.89,0.29-0.75,0.89l0.01,0.03c0.14,0.6-0.36,1.19-0.75,0.9l-7.25-5.49c-0.43-0.33-0.96,0.42-0.71,1.01l1.12,2.7
					c0.25,0.59-0.27,1.34-0.71,1.02l-9.37-6.89c-0.43-0.32-0.95,0.42-0.71,1.02l0.73,1.79c0.24,0.57-0.25,1.3-0.68,1.03l-7.19-4.48
					c-0.48-0.3-0.97,0.59-0.63,1.13l0,0c0.32,0.51-0.09,1.34-0.57,1.16c-2.68-1.02-8.05-2.58-13.52-1.4
					C337.5,253.82,337.31,252.82,337.8,252.42z"/>
			</g>
		</g>
		<path class="st1" d="M372.41,344.08c0,0,0.32-43.28,22.11-75.82l3.19,1.75c0,0-16.01,26.41-14.53,74.07H372.41z"/>
		<g>
			<path class="st3" d="M394.1,270.41c6.01-6.28,25.95-23.2,50.08-1.67c0.43,0.38,0.08,1.17-0.45,0.98l-7.99-2.76
				c-0.45-0.15-0.81,0.42-0.55,0.86l0.01,0.02c0.26,0.44-0.1,1.01-0.55,0.86l-8.21-2.73c-0.49-0.16-0.85,0.53-0.49,0.94l1.65,1.86
				c0.36,0.41,0.01,1.1-0.48,0.94l-10.56-3.37c-0.49-0.16-0.84,0.53-0.48,0.94l1.08,1.24c0.35,0.4,0.03,1.07-0.45,0.95l-7.93-1.95
				c-0.53-0.13-0.83,0.66-0.38,1.01l0,0c0.41,0.33,0.19,1.06-0.31,1.03c-2.83-0.22-8.39-0.29-13.48,1.8
				C394.1,271.57,393.7,270.83,394.1,270.41z"/>
			<path class="st3" d="M394.46,270.41c7.28-0.54,29,0.44,29.16,31.19c0,0.55-0.68,0.87-0.86,0.4l-2.77-7.11
				c-0.15-0.4-0.72-0.23-0.84,0.25l-0.01,0.02c-0.13,0.48-0.68,0.64-0.84,0.25l-2.91-7.23c-0.17-0.43-0.81-0.18-0.86,0.35
				l-0.23,2.37c-0.05,0.52-0.68,0.78-0.86,0.35l-3.84-9.2c-0.18-0.43-0.8-0.17-0.86,0.35l-0.16,1.57c-0.05,0.5-0.65,0.77-0.84,0.38
				l-3.24-6.5c-0.22-0.43-0.88-0.07-0.85,0.47l0,0c0.03,0.5-0.56,0.87-0.81,0.52c-1.45-1.98-4.53-5.62-8.69-7.45
				C393.74,271.22,393.98,270.45,394.46,270.41z"/>
			<path class="st3" d="M395.89,270.91c-2.22-8.94-11.38-35.32-41.82-31.5c-0.54,0.07-0.6,0.95-0.07,1.11l8.07,2.45
				c0.45,0.14,0.5,0.84,0.07,1.06l-0.02,0.01c-0.42,0.22-0.38,0.92,0.07,1.06l8.24,2.61c0.49,0.16,0.48,0.96-0.02,1.09l-2.26,0.59
				c-0.5,0.13-0.52,0.93-0.03,1.09l10.54,3.48c0.49,0.16,0.47,0.96-0.02,1.09l-1.49,0.4c-0.48,0.13-0.52,0.89-0.05,1.08l7.65,3.11
				c0.51,0.21,0.4,1.06-0.14,1.09l0,0c-0.5,0.03-0.65,0.79-0.21,1.06c2.5,1.51,7.27,4.79,10.64,9.62
				C395.37,271.9,396.04,271.51,395.89,270.91z"/>
			<path class="st3" d="M395.41,271.32c4.68-7.94,16.59-33.19-7.82-51.76c-0.44-0.33-1.09,0.25-0.83,0.74l4.04,7.4
				c0.23,0.41-0.23,0.95-0.69,0.81l-0.02-0.01c-0.45-0.14-0.91,0.39-0.69,0.8l4.06,7.63c0.24,0.46-0.33,1.02-0.78,0.77l-2.03-1.16
				c-0.45-0.25-1.02,0.3-0.78,0.76l5.09,9.86c0.24,0.46-0.33,1.01-0.78,0.76l-1.35-0.76c-0.43-0.24-0.99,0.28-0.79,0.73l3.29,7.57
				c0.22,0.5-0.46,1.04-0.87,0.68l0,0c-0.38-0.33-1.02,0.11-0.89,0.61c0.73,2.83,1.84,8.51,0.86,14.32
				C394.35,271.66,395.1,271.85,395.41,271.32z"/>
			<path class="st3" d="M395.59,270.7c-5.94-4.83-24.87-17.04-39.17,9.02c-0.26,0.47,0.18,1.15,0.55,0.86l5.63-4.38
				c0.31-0.24,0.72,0.23,0.6,0.72l0,0.02c-0.11,0.48,0.28,0.96,0.6,0.72l5.8-4.4c0.35-0.26,0.77,0.34,0.57,0.81l-0.9,2.16
				c-0.2,0.47,0.22,1.07,0.56,0.82l7.5-5.52c0.35-0.26,0.76,0.34,0.57,0.81l-0.59,1.43c-0.19,0.46,0.2,1.04,0.55,0.83l5.75-3.58
				c0.38-0.24,0.78,0.47,0.51,0.9l0,0c-0.25,0.4,0.07,1.07,0.45,0.93c2.15-0.81,6.44-2.06,10.82-1.12
				C395.83,271.82,395.98,271.02,395.59,270.7z"/>
		</g>
	</g>
</g>
<g>
	<g>
		<path class="st1" d="M500.77,395.31l-0.35-0.09c-0.61-0.15-0.82-1.47-0.45-2.94l32.89-132.59c0.36-1.47,1.16-2.54,1.77-2.39
			l0.35,0.09c0.61,0.15,0.81,1.47,0.45,2.94l-32.89,132.59C502.18,394.4,501.38,395.46,500.77,395.31z"/>
		<path class="st4" d="M545.37,214.8c-36.88-9.15-72.48,6.41-79.51,34.75l133.56,33.13C606.45,254.34,582.25,223.95,545.37,214.8z"
			/>
		<path class="st5" d="M545.37,214.8c-17.39-4.31-37.18,15.17-44.21,43.51l62.96,15.62C571.15,245.58,562.75,219.11,545.37,214.8z"
			/>
	</g>
	<g>
		<path class="st6" d="M534.7,376.93l43.14-43.14c1.96-1.96,1.96-5.15,0-7.11c-1.96-1.96-5.15-1.96-7.11,0l-41.67,41.67h-85.93
			c-1.35,0-2.64,0.54-3.58,1.5l-20.45,20.78c-1.95,1.98-1.92,5.16,0.06,7.11c0.98,0.96,2.25,1.44,3.53,1.44c1.3,0,2.6-0.5,3.58-1.5
			l18.97-19.28h71.02l14.58,18.83c0.99,1.28,2.48,1.95,3.98,1.95c1.08,0,2.16-0.34,3.07-1.05c2.2-1.7,2.6-4.86,0.9-7.05l-9.82-12.68
			h2.16C532.48,378.41,533.76,377.88,534.7,376.93z"/>
		<path class="st7" d="M526.07,365.43L526.07,365.43c-1.71-1.7-1.71-4.47-0.01-6.18l36.41-36.5c1.7-1.71,4.47-1.71,6.18-0.01l0,0
			c1.71,1.7,1.71,4.47,0.01,6.18l-36.41,36.5C530.54,367.13,527.78,367.13,526.07,365.43z"/>
		<path class="st7" d="M430.47,363.99L430.47,363.99c0-2.41,1.96-4.37,4.37-4.36l76.95,0.05c2.41,0,4.37,1.96,4.36,4.37v0
			c0,2.41-1.96,4.37-4.37,4.36l-76.95-0.05C432.42,368.36,430.47,366.4,430.47,363.99z"/>
	</g>
	<g>
		<path class="st6" d="M284.71,376.93l-43.14-43.14c-1.96-1.96-1.96-5.15,0-7.11c1.96-1.96,5.15-1.96,7.11,0l41.67,41.67h85.93
			c1.35,0,2.64,0.54,3.58,1.5l20.45,20.78c1.95,1.98,1.92,5.16-0.06,7.11c-0.98,0.96-2.25,1.44-3.53,1.44c-1.3,0-2.6-0.5-3.58-1.5
			l-18.97-19.28h-71.02l-14.58,18.83c-0.99,1.28-2.48,1.95-3.98,1.95c-1.08,0-2.16-0.34-3.07-1.05c-2.2-1.7-2.6-4.86-0.9-7.05
			l9.82-12.68h-2.16C286.93,378.41,285.65,377.88,284.71,376.93z"/>
		<path class="st7" d="M293.34,365.43L293.34,365.43c1.71-1.7,1.71-4.47,0.01-6.18l-36.41-36.5c-1.7-1.71-4.47-1.71-6.18-0.01l0,0
			c-1.71,1.7-1.71,4.47-0.01,6.18l36.41,36.5C288.87,367.13,291.63,367.13,293.34,365.43z"/>
		<path class="st7" d="M388.94,363.99L388.94,363.99c0-2.41-1.96-4.37-4.37-4.36l-76.95,0.05c-2.41,0-4.37,1.96-4.36,4.37v0
			c0,2.41,1.96,4.37,4.37,4.36l76.95-0.05C386.99,368.36,388.94,366.4,388.94,363.99z"/>
	</g>
</g>
<g>
	<path class="st8" d="M558.66,301.44L558.66,301.44c7.03,5.54,8.24,15.72,2.7,22.75l-10.4,13.2c-3.78,4.79-10.72,5.62-15.52,1.84
		l-8.09-6.37c-4.79-3.78-5.62-10.72-1.84-15.52l10.4-13.2C541.45,297.11,551.63,295.91,558.66,301.44z"/>
	<path class="st9" d="M535.83,330.42L535.83,330.42c-5.68-4.47-6.66-12.71-2.18-18.39l4.15-5.27c4.47-5.68,12.71-6.66,18.39-2.18v0
		c5.68,4.47,6.66,12.71,2.18,18.39l-4.15,5.27C549.75,333.92,541.51,334.9,535.83,330.42z"/>
	<path class="st8" d="M563.54,320.49c0.58-1.38,0.97-2.81,1.15-4.25c0.7-5.46-1.39-11.14-6.03-14.79c-0.78-0.62-1.61-1.14-2.46-1.59
		c-1.6-0.85-3.3-1.41-5.03-1.68c-1.13,1.94-1.79,4.05-1.97,6.18c-0.41,4.82,1.52,9.75,5.6,12.97c0.51,0.4,1.05,0.75,1.59,1.08
		c-0.2,0.2-0.39,0.42-0.57,0.65c-2.67,3.4-2.27,8.23,0.81,11.14l4.73-6C562.28,323.03,562.99,321.78,563.54,320.49z"/>
	<g>
		<path class="st9" d="M522.74,336.64c-0.68,0-9.13-0.11-25.95-5.36c-1.23-0.38-1.92-1.7-1.54-2.93c0.38-1.23,1.7-1.92,2.93-1.54
			c16.33,5.1,24.45,5.15,24.56,5.15c0,0,0,0,0.01,0c1.29,0,2.33,1.04,2.34,2.33c0.01,1.29-1.03,2.34-2.32,2.35
			C522.77,336.64,522.75,336.64,522.74,336.64z"/>
	</g>
	<g>
		<path class="st9" d="M440.03,362.34c-1.06,0-2.01-0.72-2.27-1.79c-0.3-1.26,0.47-2.52,1.73-2.82c15.05-3.61,50.73-2.92,52.24-2.89
			c1.29,0.03,2.32,1.09,2.29,2.38c-0.03,1.29-1.1,2.3-2.38,2.29c-0.36-0.01-36.59-0.71-51.05,2.76
			C440.4,362.32,440.21,362.34,440.03,362.34z"/>
	</g>
	<g>
		<path class="st9" d="M439.4,357.82c-1.08,0-2.05-0.75-2.28-1.85c-0.27-1.26,0.54-2.5,1.8-2.77c14.81-3.15,50.48-2.43,51.99-2.39
			c1.29,0.03,2.31,1.1,2.29,2.39c-0.03,1.27-1.07,2.29-2.34,2.29c-0.02,0-0.03,0-0.05,0c-0.37-0.01-36.65-0.75-50.92,2.29
			C439.72,357.8,439.56,357.82,439.4,357.82z"/>
	</g>
	
		<rect x="534.6" y="328.85" transform="matrix(0.8792 0.4764 -0.4764 0.8792 223.1565 -215.81)" class="st10" width="5.28" height="6.8"/>
	<path class="st7" d="M537.43,347.75c3.46-4.3,2.78-10.59-1.52-14.05l-2.7-2.07c-4.3-3.46-8.41-2.21-14.05,1.52l-9.45,7.85
		l12.95,17.02L537.43,347.75z"/>
	<polygon class="st11" points="486.52,364.41 484.31,344.12 507.3,344.7 509.7,341.01 522.65,358.03 	"/>
	<g>
		<path class="st12" d="M541.12,323.83c-1.63,0-2.76-1.16-3.17-1.86c-0.12-0.21-0.09-0.48,0.07-0.66c0.16-0.18,0.42-0.24,0.65-0.13
			l3.3,1.52c0.22,0.1,0.35,0.33,0.32,0.57s-0.21,0.44-0.44,0.49C541.6,323.8,541.35,323.83,541.12,323.83z"/>
	</g>
	<g>
		<path class="st9" d="M505.15,347.08c-3.19,0-5.19-0.22-5.4-0.25c-1.28-0.15-2.2-1.31-2.05-2.59s1.3-2.2,2.59-2.05
			c0.18,0.02,13.24,1.42,26.86-3.51c1.22-0.44,2.55,0.19,2.99,1.4c0.44,1.21-0.19,2.55-1.4,2.99
			C519.45,346.44,510.58,347.08,505.15,347.08z"/>
	</g>
</g>
<g>
	<g>
		<path class="st9" d="M292.15,333.9c-0.93,0-1.81-0.56-2.17-1.47c-0.48-1.2,0.11-2.56,1.31-3.04c0.11-0.04,11.5-4.63,18.5-11.66
			c0.91-0.91,2.39-0.92,3.31,0c0.91,0.91,0.92,2.39,0.01,3.31c-7.69,7.72-19.58,12.5-20.08,12.7
			C292.73,333.85,292.44,333.9,292.15,333.9z"/>
	</g>
	<g>
		<path class="st9" d="M346.1,360.44c-0.85,0-1.67-0.47-2.08-1.28c-3.15-6.17-8.05-13.84-11.4-16.08c-0.45-0.3-1.02-0.36-1.53-0.15
			l-20.53,8.37c-1.19,0.49-2.56-0.09-3.05-1.28c-0.49-1.2,0.09-2.56,1.28-3.05l20.53-8.37c1.95-0.8,4.16-0.57,5.9,0.6
			c5.71,3.83,12.24,16.42,12.96,17.84c0.59,1.15,0.13,2.56-1.02,3.14C346.82,360.36,346.46,360.44,346.1,360.44z"/>
	</g>
	
		<rect x="277.43" y="327.79" transform="matrix(-0.8679 0.4967 -0.4967 -0.8679 687.6464 479.5332)" class="st10" width="5.28" height="6.8"/>
	<path class="st9" d="M295.19,331.18c-4.31-3.75-10.83-2.81-14.57,1.51l0,0c-3.75,4.31-3.29,10.85,1.03,14.59l13.5,11.72l13.64-15.7
		L295.19,331.18z"/>
	<path class="st7" d="M310.31,358.4L310.31,358.4c3.77-4.34,3.3-10.9-1.03-14.67l-0.49-0.43L295.14,359l0.49,0.43
		C299.97,363.2,306.54,362.74,310.31,358.4z"/>
	<g>
		<path class="st9" d="M276.48,341.76c-2.14,0-5.54-0.11-10.15-0.58c-1.79-0.18-2.57-1.18-2.87-1.76c-0.95-1.8,0.09-3.72,1.09-5.58
			c0.35-0.65,0.96-1.77,1.14-2.42c-1.14-0.46-1.73-1.73-1.34-2.91c0.41-1.22,1.74-1.88,2.96-1.47c1.74,0.59,2.49,1.68,2.81,2.5
			c0.87,2.21-0.37,4.5-1.46,6.52c-0.1,0.18-0.21,0.4-0.33,0.61c6.81,0.61,10.42,0.35,10.46,0.35c1.28-0.08,2.41,0.87,2.51,2.15
			c0.1,1.29-0.86,2.41-2.15,2.51C279.07,341.69,278.17,341.76,276.48,341.76z"/>
	</g>
	<g>
		<path class="st9" d="M356.34,360.13c-0.19,0-0.37-0.02-0.56-0.06c-5.44-1.17-15.56-3.35-24.9-3.48
			c-12.75-0.18-24.18,1.33-24.29,1.35c-1.46,0.19-2.8-0.83-2.99-2.29s0.83-2.8,2.28-2.99c0.48-0.06,11.92-1.57,25.08-1.39
			c9.87,0.14,20.33,2.39,25.95,3.6c1.44,0.31,2.35,1.73,2.04,3.16C358.68,359.28,357.57,360.13,356.34,360.13z"/>
	</g>
	<path class="st7" d="M279.52,305.18l-5.34,3.7l-6.85-9.89l1.16-0.8c2.68-1.85,6.35-1.19,8.2,1.49l3.03,4.38
		C279.98,304.42,279.89,304.92,279.52,305.18z"/>
	<path class="st7" d="M261.26,301.45l-3.67,2.54c-4.03,2.79-5.03,8.31-2.24,12.34l2.23,3.22c0.21,0.31,0.64,0.38,0.94,0.17l10.4-7.2
		L261.26,301.45z"/>
	<path class="st9" d="M281.1,329.83L281.1,329.83c-5.94,4.12-14.1,2.64-18.22-3.31l-3.82-5.51c-4.12-5.94-2.64-14.1,3.31-18.22v0
		c5.94-4.12,14.1-2.64,18.22,3.31l3.82,5.51C288.53,317.55,287.05,325.71,281.1,329.83z"/>
	<path class="st7" d="M268.76,307.21l-13.32,9.23l0,0c-3.26-4.7-2.09-11.16,2.62-14.41l13.32-9.23l0,0
		C274.64,297.5,273.46,303.95,268.76,307.21z"/>
	<g>
		<path class="st12" d="M275.93,325.49c-0.21,0-0.44-0.02-0.68-0.06c-0.24-0.04-0.42-0.24-0.46-0.48c-0.03-0.24,0.09-0.47,0.31-0.58
			l3.26-1.59c0.22-0.11,0.48-0.06,0.65,0.12c0.17,0.18,0.2,0.45,0.08,0.66C279.06,323.64,278.01,325.49,275.93,325.49z"/>
	</g>
</g>
<g>
	<polygon class="st7" points="504.58,312.79 507.8,311.71 508.07,312.5 505.14,313.47 502.14,318.04 501.23,317.9 	"/>
	<path class="st2" d="M507.17,318.8c0.16,0.87,0.18,1.77,0.04,2.7c-0.69,4.5-4.89,7.59-9.39,6.9c-4.5-0.69-7.59-4.89-6.9-9.39
		c0.14-0.92,0.43-1.78,0.84-2.56L507.17,318.8z"/>
</g>
<circle class="st12" cx="435.14" cy="228.86" r="15.98"/>
<g>
	<path class="st13" d="M311.75,323.99c2,0,4,0,6,0l1.58-11.05c-3.05,0-6.1,0-9.15,0L311.75,323.99z"/>
	<path class="st14" d="M312.64,323.06c1.4,0,2.81,0,4.21,0l0.95-6.67h-6.12L312.64,323.06z"/>
</g>
<g>
	<g>
		<path class="st15" d="M536.34,316.25L536.34,316.25c-2.4-1.42-3.2-4.52-1.79-6.92l0.99-1.67c0.87-1.48,2.78-1.97,4.26-1.1
			l3.34,1.97c1.48,0.87,1.97,2.78,1.1,4.26l-0.99,1.67C541.85,316.87,538.75,317.67,536.34,316.25z"/>
	</g>
	<g>
		<path class="st15" d="M547.21,322.66L547.21,322.66c-2.4-1.42-3.2-4.52-1.79-6.92l0.99-1.67c0.87-1.48,2.78-1.97,4.26-1.1
			l3.34,1.97c1.48,0.87,1.97,2.78,1.1,4.26l-0.99,1.67C552.71,323.28,549.61,324.08,547.21,322.66z"/>
	</g>
	<g>
		<path class="st16" d="M544.53,311.26c-0.11-0.07-0.16-0.2-0.12-0.33c0.05-0.15,0.21-0.22,0.35-0.17c1.16,0.39,2.25,1.03,3.15,1.85
			c0.11,0.1,0.12,0.28,0.02,0.39c-0.1,0.11-0.28,0.12-0.39,0.02c-0.85-0.77-1.87-1.37-2.96-1.74
			C544.57,311.27,544.55,311.27,544.53,311.26z"/>
	</g>
</g>
<g>
	<g>
		<path class="st15" d="M269.38,324.26L269.38,324.26c-2.61,1.73-6.13,1.01-7.86-1.6l-1.2-1.82c-1.06-1.61-0.62-3.78,0.99-4.84
			l3.63-2.4c1.61-1.06,3.78-0.62,4.84,0.99l1.2,1.82C272.71,319.02,271.99,322.54,269.38,324.26z"/>
	</g>
	<g>
		<path class="st15" d="M281.19,316.46L281.19,316.46c-2.61,1.73-6.13,1.01-7.86-1.6l-1.2-1.82c-1.06-1.61-0.62-3.78,0.99-4.84
			l3.63-2.4c1.61-1.06,3.78-0.62,4.84,0.99l1.2,1.82C284.52,311.21,283.8,314.73,281.19,316.46z"/>
	</g>
	<g>
		<path class="st16" d="M268.37,313.54c-0.12,0.08-0.28,0.07-0.39-0.04c-0.12-0.12-0.12-0.32,0-0.44c0.96-0.97,2.15-1.76,3.42-2.27
			c0.16-0.06,0.34,0.01,0.41,0.17c0.06,0.16-0.02,0.34-0.17,0.41c-1.19,0.48-2.3,1.22-3.21,2.13
			C268.41,313.52,268.39,313.53,268.37,313.54z"/>
	</g>
</g>
</svg>
